<?xml version="1.0" encoding="UTF-8"?>
<svg width="100pt" height="100pt" version="1.1" viewBox="0 0 100 100" xmlns="http://www.w3.org/2000/svg">
 <g fill="#fff">
  <path d="m42.75 50.781c-6.7422 1.2695-11.594 7.2031-11.5 14.062v3.125c0 1.0352 0.41016 2.0312 1.1445 2.7617 0.73047 0.73438 1.7266 1.1445 2.7617 1.1445h29.688c1.0352 0 2.0312-0.41016 2.7617-1.1445 0.73438-0.73047 1.1445-1.7266 1.1445-2.7617v-3.125c0.09375-6.8594-4.7578-12.793-11.5-14.062 4.4297-3.1523 6.3125-8.8086 4.6562-13.988-1.6562-5.1797-6.4688-8.6953-11.906-8.6953s-10.25 3.5156-11.906 8.6953c-1.6562 5.1797 0.22656 10.836 4.6562 13.988zm22.875 14.062v3.125c0 0.20703-0.082031 0.40625-0.23047 0.55078-0.14453 0.14844-0.34375 0.23047-0.55078 0.23047h-29.688c-0.42969 0-0.78125-0.35156-0.78125-0.78125v-3.125c0-6.4219 5.0781-11.266 11.805-11.266h7.6406c6.7266-0.03125 11.805 4.8125 11.805 11.266zm-15.625-33.594c3.793 0 7.2109 2.2852 8.6602 5.7891 1.4531 3.5 0.64844 7.5352-2.0312 10.215-2.6797 2.6797-6.7148 3.4844-10.215 2.0312-3.5039-1.4492-5.7891-4.8672-5.7891-8.6602 0-5.1758 4.1992-9.375 9.375-9.375z"/>
  <path d="m14.062 36.164c0.41406 0 0.8125-0.16406 1.1055-0.45703s0.45703-0.69141 0.45703-1.1055v-18.977h18.977c0.86328 0 1.5625-0.69922 1.5625-1.5625s-0.69922-1.5625-1.5625-1.5625h-20.539c-0.86328 0-1.5625 0.69922-1.5625 1.5625v20.539c0 0.41406 0.16406 0.8125 0.45703 1.1055s0.69141 0.45703 1.1055 0.45703z"/>
  <path d="m34.602 84.375h-18.977v-18.977c0-0.86328-0.69922-1.5625-1.5625-1.5625s-1.5625 0.69922-1.5625 1.5625v20.539c0 0.41406 0.16406 0.8125 0.45703 1.1055s0.69141 0.45703 1.1055 0.45703h20.539c0.86328 0 1.5625-0.69922 1.5625-1.5625s-0.69922-1.5625-1.5625-1.5625z"/>
  <path d="m85.938 63.836c-0.86328 0-1.5625 0.69922-1.5625 1.5625v18.977h-18.977c-0.86328 0-1.5625 0.69922-1.5625 1.5625s0.69922 1.5625 1.5625 1.5625h20.539c0.41406 0 0.8125-0.16406 1.1055-0.45703s0.45703-0.69141 0.45703-1.1055v-20.539c0-0.41406-0.16406-0.8125-0.45703-1.1055s-0.69141-0.45703-1.1055-0.45703z"/>
  <path d="m85.938 12.5h-20.539c-0.86328 0-1.5625 0.69922-1.5625 1.5625s0.69922 1.5625 1.5625 1.5625h18.977v18.977c0 0.86328 0.69922 1.5625 1.5625 1.5625s1.5625-0.69922 1.5625-1.5625v-20.539c0-0.41406-0.16406-0.8125-0.45703-1.1055s-0.69141-0.45703-1.1055-0.45703z"/>
 </g>
</svg>
