<?xml version="1.0" encoding="UTF-8"?>
<svg width="100pt" height="100pt" version="1.1" viewBox="0 0 100 100" xmlns="http://www.w3.org/2000/svg">
 <path d="m75.301 38.801h-2.8008v-10.801c0-12.898-9.3008-23-22.602-23-13.297 0-22.398 10.301-22.398 23v10.699 0h-2.8008c-6.1992 0-11.199 5-11.301 11.301v33.801c0 6.1992 5 11.199 11.301 11.301h50.602c6.1992 0 11.199-5 11.301-11.301v-33.801c0-6.1992-5.1016-11.199-11.301-11.199zm-42.199 0v-10.801c0-9.6016 6.6016-17.398 16.801-17.398 10.102 0 17 7.6016 17 17.398v10.699 0h-33.801v0.10156zm47.797 45c0 3.1016-2.5 5.6016-5.6016 5.6016l-50.598-0.003906c-3.1016 0-5.6016-2.5-5.6016-5.6016l0.003906-33.797c0-3.1016 2.5-5.6016 5.6016-5.6016h50.602c3.1016 0 5.6016 2.5 5.6016 5.6016zm-25.297-22.5c0 2.1016-1.1016 3.8984-2.8008 4.8984h-0.10156 0.10156v9.1992c0 1.6016-1.3008 2.8008-2.8008 2.8008-1.6016 0-2.8008-1.3008-2.8008-2.8008v-9.1992h0.10156-0.10156c-1.6992-1-2.8008-2.8008-2.8008-4.8984 0-3.1016 2.5-5.6016 5.6016-5.6016 3.1016-0.097657 5.6016 2.4023 5.6016 5.6016z" fill="#fff"/>
</svg>
