<?xml version="1.0" encoding="UTF-8"?>
<svg width="100pt" height="100pt" version="1.1" viewBox="0 0 100 100" xmlns="http://www.w3.org/2000/svg">
 <path d="m58.312 68.957-6.8008-7.2422 18.895 0.62891-1.5742 17.82-5.9844-6.4219c-6.4219 3.4648-13.98 4.2188-20.973 2.0156-11.902-3.7773-19.711-15.113-18.895-27.582l6.2344 0.44141c-0.62891 9.5742 5.3516 18.324 14.547 21.16 4.7266 1.5078 9.9531 1.1953 14.551-0.82031zm-0.25-44.84c11.965 3.7773 19.711 15.113 18.895 27.582l-6.2383-0.44141c0.62891-9.5742-5.3516-18.262-14.547-21.16-4.8477-1.5117-10.012-1.1953-14.609 0.82031l6.8008 7.2422-18.895-0.62891 1.5742-17.82 6.0469 6.4219c3.9688-2.1406 8.375-3.2734 12.848-3.2734 2.707-0.003906 5.4766 0.4375 8.125 1.2578z" fill="#fff"/>
</svg>
